<svg width="120" height="29" viewBox="0 0 120 29" fill="none" xmlns="http://www.w3.org/2000/svg">
<path d="M27.8614 9.28053C27.4483 9.28053 27.1019 9.14085 26.8221 8.86147C26.5423 8.5821 26.4023 8.23621 26.4023 7.8238C26.4023 7.41139 26.5423 7.06549 26.8221 6.78612C27.1019 6.50675 27.4483 6.36706 27.8614 6.36706C28.2611 6.36706 28.6009 6.50675 28.8807 6.78612C29.1605 7.06549 29.3004 7.41139 29.3004 7.8238C29.3004 8.23621 29.1605 8.5821 28.8807 8.86147C28.6009 9.14085 28.2611 9.28053 27.8614 9.28053ZM28.9806 10.7373V21.7326H26.7021V10.7373H28.9806Z" fill="white"/>
<path d="M37.5285 10.5577C38.3946 10.5577 39.1674 10.7373 39.8469 11.0965C40.5398 11.4557 41.0795 11.9878 41.4659 12.6929C41.8523 13.398 42.0455 14.2494 42.0455 15.2472V21.7326H39.787V15.5864C39.787 14.6019 39.5405 13.8503 39.0475 13.3315C38.5545 12.7993 37.8816 12.5332 37.0288 12.5332C36.176 12.5332 35.4965 12.7993 34.9901 13.3315C34.4971 13.8503 34.2506 14.6019 34.2506 15.5864V21.7326H31.9721V10.7373H34.2506V11.9945C34.6237 11.5421 35.0967 11.1896 35.6697 10.9368C36.256 10.6841 36.8756 10.5577 37.5285 10.5577Z" fill="white"/>
<path d="M48.9492 21.9122C48.0831 21.9122 47.3036 21.7592 46.6108 21.4533C45.9312 21.134 45.3916 20.7083 44.9918 20.1761C44.5921 19.6307 44.3789 19.0254 44.3523 18.3602H46.7107C46.7507 18.8258 46.9705 19.2183 47.3703 19.5376C47.7833 19.8435 48.2963 19.9965 48.9093 19.9965C49.5488 19.9965 50.0418 19.8768 50.3883 19.6373C50.748 19.3846 50.9279 19.0653 50.9279 18.6795C50.9279 18.2671 50.7281 17.9611 50.3283 17.7615C49.9419 17.562 49.3223 17.3425 48.4695 17.103C47.6434 16.8769 46.9705 16.6573 46.4509 16.4445C45.9312 16.2316 45.4782 15.9057 45.0918 15.4667C44.7187 15.0277 44.5321 14.449 44.5321 13.7306C44.5321 13.1452 44.7054 12.6131 45.0518 12.1341C45.3982 11.6419 45.8912 11.2561 46.5308 10.9767C47.1837 10.6974 47.9299 10.5577 48.7693 10.5577C50.0219 10.5577 51.0279 10.877 51.7874 11.5155C52.5602 12.1408 52.9732 12.9989 53.0265 14.0898H50.748C50.7081 13.5975 50.5082 13.2051 50.1484 12.9124C49.7887 12.6197 49.3023 12.4734 48.6894 12.4734C48.0898 12.4734 47.6301 12.5865 47.3103 12.8126C46.9905 13.0388 46.8306 13.3381 46.8306 13.7106C46.8306 14.0033 46.9372 14.2494 47.1504 14.449C47.3636 14.6485 47.6234 14.8082 47.9299 14.9279C48.2364 15.0343 48.6894 15.174 49.289 15.3469C50.0885 15.5598 50.7414 15.7793 51.2477 16.0055C51.7674 16.2183 52.2137 16.5376 52.5868 16.9633C52.9599 17.389 53.1531 17.9544 53.1665 18.6595C53.1665 19.2848 52.9932 19.8435 52.6468 20.3358C52.3004 20.828 51.8073 21.2138 51.1678 21.4932C50.5415 21.7726 49.802 21.9122 48.9492 21.9122Z" fill="white"/>
<path d="M56.7877 9.28053C56.3746 9.28053 56.0282 9.14085 55.7483 8.86147C55.4685 8.5821 55.3286 8.23621 55.3286 7.8238C55.3286 7.41139 55.4685 7.06549 55.7483 6.78612C56.0282 6.50675 56.3746 6.36706 56.7877 6.36706C57.1874 6.36706 57.5272 6.50675 57.807 6.78612C58.0868 7.06549 58.2267 7.41139 58.2267 7.8238C58.2267 8.23621 58.0868 8.5821 57.807 8.86147C57.5272 9.14085 57.1874 9.28053 56.7877 9.28053ZM57.9069 10.7373V21.7326H55.6284V10.7373H57.9069Z" fill="white"/>
<path d="M65.3355 10.5577C66.1882 10.5577 66.9411 10.7306 67.594 11.0765C68.2602 11.4091 68.7799 11.8282 69.153 12.3337V10.7373H71.4515V21.9122C71.4515 22.9233 71.2383 23.8213 70.8119 24.6062C70.3855 25.4044 69.7659 26.0297 68.9531 26.482C68.1536 26.9343 67.1943 27.1605 66.075 27.1605C64.5826 27.1605 63.3435 26.8079 62.3574 26.1029C61.3714 25.4111 60.8118 24.4665 60.6785 23.2692H62.9371C63.1103 23.8413 63.4767 24.3002 64.0363 24.6461C64.6093 25.0053 65.2888 25.1849 66.075 25.1849C66.9944 25.1849 67.7339 24.9055 68.2935 24.3468C68.8665 23.788 69.153 22.9765 69.153 21.9122V20.0763C68.7666 20.5952 68.2402 21.0342 67.574 21.3934C66.9211 21.7393 66.1749 21.9122 65.3355 21.9122C64.3761 21.9122 63.4967 21.6728 62.6972 21.1938C61.9111 20.7016 61.2848 20.0231 60.8184 19.1584C60.3654 18.2804 60.1389 17.2893 60.1389 16.1851C60.1389 15.0809 60.3654 14.1031 60.8184 13.2516C61.2848 12.4002 61.9111 11.7417 62.6972 11.2761C63.4967 10.7971 64.3761 10.5577 65.3355 10.5577ZM69.153 16.225C69.153 15.4667 68.9931 14.8082 68.6733 14.2494C68.3668 13.6907 67.9604 13.2649 67.4541 12.9723C66.9477 12.6796 66.4014 12.5332 65.8152 12.5332C65.2289 12.5332 64.6826 12.6796 64.1762 12.9723C63.6699 13.2516 63.2568 13.6707 62.9371 14.2294C62.6306 14.7749 62.4774 15.4268 62.4774 16.1851C62.4774 16.9434 62.6306 17.6085 62.9371 18.1806C63.2568 18.7526 63.6699 19.1917 64.1762 19.4976C64.6959 19.7903 65.2422 19.9367 65.8152 19.9367C66.4014 19.9367 66.9477 19.7903 67.4541 19.4976C67.9604 19.205 68.3668 18.7793 68.6733 18.2205C68.9931 17.6485 69.153 16.9833 69.153 16.225Z" fill="white"/>
<path d="M80.1404 10.5577C80.9799 10.5577 81.726 10.7373 82.3789 11.0965C83.0452 11.4557 83.5648 11.9878 83.9379 12.6929C84.3243 13.398 84.5175 14.2494 84.5175 15.2472V21.7326H82.259V15.5864C82.259 14.6019 82.0125 13.8503 81.5195 13.3315C81.0265 12.7993 80.3536 12.5332 79.5008 12.5332C78.6481 12.5332 77.9685 12.7993 77.4622 13.3315C76.9692 13.8503 76.7227 14.6019 76.7227 15.5864V21.7326H74.4442V6.96572H76.7227V12.0144C77.1091 11.5488 77.5954 11.1896 78.1817 10.9368C78.7813 10.6841 79.4342 10.5577 80.1404 10.5577Z" fill="white"/>
<path d="M90.0822 12.5931V18.6795C90.0822 19.0919 90.1754 19.3912 90.362 19.5775C90.5618 19.7504 90.895 19.8369 91.3613 19.8369H92.7604V21.7326H90.9616C89.9356 21.7326 89.1494 21.4932 88.6031 21.0142C88.0568 20.5353 87.7837 19.7571 87.7837 18.6795V12.5931H86.4845V10.7373H87.7837V8.00339H90.0822V10.7373H92.7604V12.5931H90.0822Z" fill="white"/>
<path d="M96.0197 9.28053C95.6066 9.28053 95.2602 9.14085 94.9803 8.86147C94.7005 8.5821 94.5606 8.23621 94.5606 7.8238C94.5606 7.41139 94.7005 7.06549 94.9803 6.78612C95.2602 6.50675 95.6066 6.36706 96.0197 6.36706C96.4194 6.36706 96.7592 6.50675 97.039 6.78612C97.3188 7.06549 97.4587 7.41139 97.4587 7.8238C97.4587 8.23621 97.3188 8.5821 97.039 8.86147C96.7592 9.14085 96.4194 9.28053 96.0197 9.28053ZM97.1389 10.7373V21.7326H94.8604V10.7373H97.1389Z" fill="white"/>
<path d="M104.747 12.5931H102.709V21.7326H100.41V12.5931H99.1111V10.7373H100.41V9.95901C100.41 8.69518 100.743 7.77723 101.41 7.20518C102.089 6.61983 103.148 6.32715 104.587 6.32715V8.2229C103.895 8.2229 103.408 8.35594 103.128 8.62201C102.849 8.87478 102.709 9.32044 102.709 9.95901V10.7373H104.747V12.5931Z" fill="white"/>
<path d="M116.68 10.7373L109.925 26.9011H107.566L109.805 21.553L105.468 10.7373H108.006L111.104 19.1185L114.322 10.7373H116.68Z" fill="white"/>
<path fill-rule="evenodd" clip-rule="evenodd" d="M9.60263 6.97363C4.82232 7.1399 1 10.9255 1 15.5711C1 20.2168 4.82232 24.0024 9.60263 24.1686V21.1842C6.53503 21.0251 4.09837 18.5731 4.09837 15.5716C4.09837 12.5702 6.53503 10.1182 9.60263 9.9591V6.97363Z" fill="white"/>
<path fill-rule="evenodd" clip-rule="evenodd" d="M6.04688 15.5745C6.04688 17.5383 7.63872 19.1303 9.60245 19.1305V12.0186C7.63872 12.0188 6.04688 13.6108 6.04688 15.5745Z" fill="white"/>
<path fill-rule="evenodd" clip-rule="evenodd" d="M9.62916 21.1515C12.7371 21.0355 15.2163 18.5678 15.2089 15.5471C15.2015 12.5263 12.7101 10.0709 9.60164 9.97019L9.60642 11.9113C11.6022 12.009 13.1914 13.5999 13.1962 15.5522C13.201 17.5044 11.6196 19.1031 9.62439 19.2107L9.62916 21.1515Z" fill="white"/>
<mask id="mask0_1668_1670" style="mask-type:alpha" maskUnits="userSpaceOnUse" x="12" y="2" width="25" height="24">
<path d="M36.1248 13.9657C36.1248 20.4857 30.8393 25.7713 24.3192 25.7713C17.7992 25.7713 12.5137 20.4857 12.5137 13.9657C12.5137 7.44568 17.7992 2.16016 24.3192 2.16016C30.8393 2.16016 36.1248 7.44568 36.1248 13.9657Z" fill="#303742"/>
</mask>
<g mask="url(#mask0_1668_1670)">
<rect x="13.1133" y="19.2422" width="2.12351" height="6.41997" transform="rotate(-54.2257 13.1133 19.2422)" fill="white"/>
</g>
</svg>
