<svg width="32" height="32" viewBox="0 0 32 32" fill="none" xmlns="http://www.w3.org/2000/svg">
<rect width="32" height="32" fill="#303742"/>
<path fill-rule="evenodd" clip-rule="evenodd" d="M16.8301 5.35247C10.6295 5.5678 5.67133 10.4781 5.67133 16.504C5.67133 22.5298 10.6295 27.4401 16.8301 27.6555V23.7838C12.8502 23.5786 9.68848 20.3978 9.68848 16.5039C9.68848 12.61 12.8502 9.42916 16.8301 9.22396V5.35247Z" fill="white"/>
<path fill-rule="evenodd" clip-rule="evenodd" d="M16.8302 11.899C14.2829 11.899 12.2179 13.964 12.2179 16.5113C12.2179 19.0586 14.2829 21.1236 16.8302 21.1236C16.8342 21.1236 16.8382 21.1236 16.8422 21.1236H16.8302V11.899Z" fill="white"/>
<path fill-rule="evenodd" clip-rule="evenodd" d="M16.8658 23.7415C20.8976 23.5916 24.1138 20.3906 24.1042 16.4722C24.0945 12.5538 20.8626 9.36874 16.8301 9.23865L16.8363 11.7563C19.4247 11.8834 21.4858 13.9467 21.492 16.4788C21.4982 19.0108 19.4473 21.0843 16.8596 21.2241L16.8658 23.7415Z" fill="white"/>
<mask id="mask0_1733_1505" style="mask-type:alpha" maskUnits="userSpaceOnUse" x="0" y="0" width="32" height="32">
<path d="M31.2109 15.7734C31.2109 24.2303 24.3553 31.0859 15.8984 31.0859C7.44158 31.0859 0.585938 24.2303 0.585938 15.7734C0.585938 7.31658 7.44158 0.460938 15.8984 0.460938C24.3553 0.460938 31.2109 7.31658 31.2109 15.7734Z" fill="url(#paint0_linear_1733_1505)"/>
</mask>
<g mask="url(#mask0_1733_1505)">
<rect x="21.1812" y="20.8158" width="2.75432" height="8.32708" transform="rotate(-54.2257 21.1812 20.8158)" fill="white"/>
</g>
<defs>
<linearGradient id="paint0_linear_1733_1505" x1="15.8984" y1="0.460937" x2="15.8984" y2="31.0859" gradientUnits="userSpaceOnUse">
<stop stop-color="#FF3875"/>
<stop offset="1" stop-color="#FF7558"/>
</linearGradient>
</defs>
</svg>
